<?xml version="1.0" encoding="UTF-8"?>
<svg version="1.1" xmlns="http://www.w3.org/2000/svg" width="512" height="512">
<path d="M0 0 C1.60136707 -0.00346175 3.20273176 -0.00822978 4.80409151 -0.01418173 C9.17994755 -0.02665046 13.5556061 -0.02054023 17.93146265 -0.01122308 C22.66025433 -0.00441589 27.38901283 -0.01492212 32.11779785 -0.02316284 C41.37207535 -0.03648488 50.62627976 -0.03362916 59.88056009 -0.02492492 C67.40403796 -0.01814236 74.92749537 -0.01723413 82.45097542 -0.02049637 C84.05880306 -0.02118592 84.05880306 -0.02118592 85.69911208 -0.0218894 C87.87682243 -0.0228486 90.05453278 -0.02382124 92.23224313 -0.02480717 C112.64083025 -0.03335669 133.04937691 -0.02353401 153.45795739 -0.00740607 C170.95714506 0.00599479 188.45627301 0.00367007 205.95545959 -0.01016235 C226.29081456 -0.0262292 246.62613408 -0.03253074 266.96149451 -0.02332556 C269.13137884 -0.02236995 271.30126319 -0.02142683 273.47114754 -0.02049637 C274.53868891 -0.02003354 275.60623028 -0.01957072 276.7061214 -0.01909386 C284.21722577 -0.01650715 291.72830761 -0.02086815 299.23940849 -0.02793503 C308.39779329 -0.03636258 317.55610099 -0.03404358 326.714477 -0.0180928 C331.38432267 -0.01022669 336.05403995 -0.00709008 340.72388458 -0.01704025 C345.00419142 -0.02602225 349.28425161 -0.02099693 353.56453628 -0.0051076 C355.10747696 -0.00177455 356.65043875 -0.00342036 358.19336569 -0.01073496 C378.87993515 -0.10123116 395.11334733 6.0403121 410.13734436 20.39657593 C426.70273774 37.73245272 429.18889937 58.51454612 429.16168213 81.52882385 C429.16355356 83.04071669 429.16585558 84.55260904 429.16854745 86.06450063 C429.17463077 90.19314113 429.17453597 94.32176128 429.17335308 98.45040524 C429.17314819 102.91341213 429.17867621 107.37641263 429.18341064 111.8394165 C429.1916987 120.57363878 429.19446465 129.30785431 429.19502302 138.04208019 C429.19549906 145.14551468 429.19755817 152.24894696 429.20072365 159.35238075 C429.20952517 179.51521456 429.21414381 199.67804306 429.21339317 219.84087881 C429.21333324 221.46958536 429.21333324 221.46958536 429.21327209 223.13119507 C429.21323121 224.21833321 429.21319033 225.30547134 429.21314821 226.42555306 C429.21274188 244.03857174 429.22230949 261.65156903 429.23641046 279.26458152 C429.25079252 297.37232726 429.25767964 315.48006257 429.25681669 333.58781415 C429.25648535 343.7447467 429.25920463 353.90165682 429.26999474 364.05858421 C429.27912383 372.70702857 429.28125525 381.35544033 429.27448531 390.00388744 C429.27123225 394.41092376 429.27111926 398.81789762 429.27983856 403.2249279 C429.28775852 407.26977194 429.28621672 411.31450457 429.27755443 415.35934607 C429.27603144 416.81218651 429.2777895 418.2650355 429.28341451 419.71786585 C429.36978718 443.63599713 425.55670667 463.82630308 408.40296936 481.63095093 C396.12800706 493.76504659 379.63881167 500.48829963 362.36853981 500.515172 C361.72145154 500.51752423 361.07436327 500.51987647 360.40766627 500.52229998 C358.24239743 500.52894948 356.07718917 500.52853298 353.91191101 500.52812195 C352.3424611 500.53142311 350.77301204 500.53514921 349.20356405 500.53926343 C344.89260748 500.54926305 340.58166483 500.55299694 336.27069831 500.55565274 C331.62014155 500.5595619 326.96959576 500.56913987 322.31904602 500.5778656 C311.08815102 500.59761369 299.85725514 500.60769454 288.62634712 500.61659339 C283.33362937 500.62097937 278.04091261 500.62634541 272.74819565 500.63158226 C255.14690928 500.64859358 237.54562354 500.66308657 219.94433022 500.670331 C215.37829716 500.67224081 210.81226411 500.67416115 206.24623108 500.67611694 C204.54399378 500.67684255 204.54399378 500.67684255 202.80736785 500.67758282 C184.43419241 500.68587871 166.06108217 500.71120861 147.68793519 500.74369762 C128.81193953 500.77680284 109.93597697 500.79478293 91.05995214 500.79797524 C80.4669607 500.80013723 69.87406431 500.80884017 59.28110123 500.83443642 C50.25738651 500.8561908 41.23378994 500.8641706 32.21005197 500.85446963 C27.6105805 500.84993853 23.01135257 500.85174149 18.41191483 500.87123108 C14.19098098 500.88896134 9.97046653 500.88778598 5.74952762 500.87233379 C4.23260349 500.86997256 2.71564954 500.87420301 1.19877072 500.88616244 C-18.92877928 501.0348639 -37.18000098 495.6649232 -51.96372986 481.58529663 C-66.05319294 467.48857842 -72.32699949 449.48216038 -72.37792295 429.77935761 C-72.37213054 428.32727426 -72.36604966 426.87519203 -72.35971069 425.42311096 C-72.36389213 423.84761674 -72.36937406 422.27212554 -72.3760305 420.69663984 C-72.39039777 416.40143903 -72.38626789 412.10643152 -72.37886369 407.81122053 C-72.37411255 403.16554649 -72.38665904 398.51991311 -72.3968811 393.87425232 C-72.41403676 384.78601843 -72.41491579 375.69785377 -72.4096682 366.6096079 C-72.40561903 359.21874365 -72.40707892 351.82789979 -72.41241646 344.43703651 C-72.41316488 343.38322946 -72.4139133 342.3294224 -72.4146844 341.24368179 C-72.41621596 339.10253943 -72.41775431 336.96139707 -72.41929937 334.82025472 C-72.43301286 314.76157941 -72.42759495 294.70294314 -72.41611416 274.64426873 C-72.40618425 256.31679636 -72.41912034 237.98942499 -72.44304835 219.66196819 C-72.46746506 200.81738209 -72.47704082 181.97284296 -72.47039562 163.12824136 C-72.46690896 152.55883968 -72.46909885 141.98951563 -72.48664665 131.42012596 C-72.50140086 122.42218609 -72.50196215 113.42437852 -72.48457574 104.42644116 C-72.47608962 99.84110745 -72.47385743 95.25600975 -72.48922729 90.67068863 C-72.50315611 86.46297147 -72.49820722 82.25569067 -72.47898806 78.04799823 C-72.47525266 76.53600031 -72.47807797 75.02396674 -72.48859971 73.51200082 C-72.61446162 54.02038505 -67.82617443 35.68471131 -54.0096283 21.36532593 C-52.67510828 20.02580089 -51.32417306 18.70268535 -49.97203064 17.38095093 C-49.13091736 16.4914978 -49.13091736 16.4914978 -48.27281189 15.58407593 C-44.48461656 11.88536552 -39.89128768 9.59251487 -35.22203064 7.19345093 C-34.57854675 6.85990601 -33.93506287 6.52636108 -33.27207947 6.18270874 C-22.4165381 0.8443145 -11.92933066 -0.05646451 0 0 Z " fill="#00BFA5" transform="translate(77.97203063964844,6.619049072265625)"/>
<path d="M0 0 C1.11375 -0.00128906 2.2275 -0.00257812 3.375 -0.00390625 C11.32282733 1.23794177 17.08312271 4.89333209 22.60205078 10.58105469 C23.49423813 11.4697374 23.49423813 11.4697374 24.40444946 12.37637329 C26.3469592 14.31728216 28.2711125 16.27532696 30.1953125 18.234375 C31.55470778 19.60057148 32.91514908 20.96572787 34.27658081 22.32989502 C37.84601639 25.91269335 41.39977956 29.51066223 44.95080566 33.11169434 C47.83958898 36.03583529 50.73946609 38.94883161 53.6400013 41.86130905 C57.12064736 45.3568194 60.59613246 48.85743932 64.0703125 52.359375 C65.05165854 53.3480872 65.05165854 53.3480872 66.05282974 54.35677338 C77.67134238 66.07757446 77.67134238 66.07757446 81.55957031 70.64404297 C86.0947498 75.95724312 91.16341453 80.76834001 96.14345169 85.65885544 C98.66050235 88.13330042 101.16778706 90.61754753 103.67578697 93.10116005 C108.32724199 97.70716337 112.98249782 102.30915516 117.65429688 106.89453125 C120.92179077 110.10232678 124.17667219 113.3224661 127.42380905 116.55086136 C128.65434105 117.76973141 129.8893716 118.98407878 131.12913895 120.19355392 C146.76829781 135.45993287 146.76829781 135.45993287 147.625 147.0625 C147.26298944 154.36477008 144.17052944 160.0121279 139.5 165.5 C133.10663577 170.77452549 127.18474886 173.09437734 118.921875 172.94921875 C111.85100607 172.01336845 106.94086075 168.50336075 102 163.5625 C101.67 182.3725 101.34 201.1825 101 220.5625 C104.3 220.8925 107.6 221.2225 111 221.5625 C126.11954603 225.2169131 139.06291318 232.47244693 150 243.5625 C151.04414062 244.59117187 151.04414062 244.59117187 152.109375 245.640625 C167.35190235 261.59210711 172.46067047 281.66711929 172.21484375 303.16015625 C172.05321323 309.04009389 171.13646564 314.07976287 169 319.5625 C168.64808594 320.60277344 168.29617188 321.64304687 167.93359375 322.71484375 C163.62855033 334.89115469 157.01686406 344.38799845 148 353.5625 C147.38640625 354.18898438 146.7728125 354.81546875 146.140625 355.4609375 C130.18549943 370.5296672 109.41912492 375.16476742 88.11328125 374.8359375 C71.9907288 374.23137919 57.10218603 366.93580232 45 356.5625 C44.41089844 356.11648438 43.82179688 355.67046875 43.21484375 355.2109375 C30.90969872 345.62469695 22.49159665 329.5853184 19 314.5625 C18.79577294 312.66309581 18.61501112 310.76108404 18.45239258 308.85766602 C18.3664534 307.86630142 18.28051422 306.87493683 18.19197083 305.85353088 C18.09694527 304.7194706 18.09694527 304.7194706 18 303.5625 C17.41008616 303.56618717 16.82017233 303.56987434 16.21238232 303.57367325 C1.86599123 303.66196699 -12.48037564 303.7281816 -26.82697773 303.76974869 C-33.76487796 303.79038399 -40.70259695 303.81852269 -47.64038086 303.86425781 C-54.33175852 303.90834759 -61.0229087 303.93161662 -67.71443748 303.94200897 C-70.27141477 303.94941796 -72.82838137 303.96388531 -75.3852787 303.98542023 C-78.95800969 304.01432266 -82.52995473 304.01846139 -86.1027832 304.01660156 C-87.69960686 304.03817322 -87.69960686 304.03817322 -89.32868958 304.06018066 C-90.30044128 304.05468201 -91.27219299 304.04918335 -92.27339172 304.04351807 C-93.11867589 304.04720524 -93.96396006 304.05089241 -94.83485889 304.05469131 C-97 303.5625 -97 303.5625 -98.77049255 301.88282013 C-100.27355994 299.04623908 -100.38383092 297.1620862 -100.39872742 293.95635986 C-100.41126556 292.81495041 -100.42380371 291.67354095 -100.4367218 290.49754333 C-100.43528671 289.24957474 -100.43385162 288.00160614 -100.43237305 286.71582031 C-100.44766052 284.73984612 -100.44766052 284.73984612 -100.46325684 282.72395325 C-100.49084367 279.11477916 -100.50011356 275.50576264 -100.50611091 271.89649677 C-100.51549025 268.12345952 -100.54169326 264.35054015 -100.56611633 260.57757568 C-100.6097972 253.43433166 -100.63833437 246.29111048 -100.66143972 239.1477735 C-100.68848292 231.01475685 -100.73239494 222.88185871 -100.77772844 214.74892664 C-100.87059742 198.02017781 -100.94226778 181.29140776 -101 164.5625 C-101.59167969 164.97242188 -102.18335938 165.38234375 -102.79296875 165.8046875 C-103.58316406 166.34351563 -104.37335938 166.88234375 -105.1875 167.4375 C-105.96480469 167.97117188 -106.74210937 168.50484375 -107.54296875 169.0546875 C-113.59686744 172.76979862 -119.01067609 173.45375607 -126 172.5625 C-133.34968827 170.26905591 -138.74337747 165.94743379 -143 159.5625 C-146.27467206 152.95839547 -146.15262811 144.33137614 -144.0625 137.3125 C-142.18330165 133.07317101 -138.91320273 130.13495642 -135.546875 127.03125 C-133.49859143 125.04579722 -131.67479372 123.06035575 -129.82531738 120.89880371 C-126.1332568 116.65852508 -122.23741963 112.67212431 -118.24804688 108.71289062 C-117.5072438 107.97354782 -116.76644073 107.23420502 -116.00318909 106.47245789 C-114.40783183 104.88088136 -112.81132125 103.29046019 -111.21376038 101.70109558 C-108.68009588 99.18029209 -106.14965365 96.65629285 -103.61999512 94.13146973 C-97.3392036 87.86398881 -91.052967 81.60197843 -84.76690674 75.33978271 C-79.44550288 70.03816147 -74.12618628 64.73446238 -68.80958557 59.42802429 C-66.32624189 56.95112513 -63.83988703 54.47727659 -61.35339355 52.00354004 C-59.81943092 50.47321265 -58.28561004 48.94274315 -56.75195312 47.41210938 C-56.0681105 46.73343307 -55.38426788 46.05475677 -54.67970276 45.35551453 C-50.80763295 41.48386635 -47.12204698 37.50588296 -43.55545616 33.35055828 C-41.12304442 30.55440493 -38.54605737 27.90836734 -35.9453125 25.26953125 C-35.39946503 24.71561203 -34.85361755 24.16169281 -34.29122925 23.59098816 C-33.14823486 22.43431016 -32.00378449 21.27906917 -30.85791016 20.12524414 C-29.70171529 18.95748407 -28.55001281 17.78525909 -27.40283203 16.60864258 C-10.99674684 -0.21637118 -10.99674684 -0.21637118 0 0 Z " fill="#FAFDFD" transform="translate(243,69.4375)"/>
<path d="M0 0 C2.81663084 1.35840403 4.88389283 2.63470269 7.09692383 4.85400391 C7.67465042 5.42865387 8.25237701 6.00330383 8.84761047 6.59536743 C9.46121933 7.2161618 10.07482819 7.83695618 10.70703125 8.4765625 C11.35065109 9.12064056 11.99427094 9.76471863 12.65739441 10.42831421 C14.01884298 11.79278138 15.37786275 13.15967568 16.73461914 14.52880859 C18.78944015 16.60173694 20.85199987 18.66669979 22.91601562 20.73046875 C24.24265725 22.06203215 25.56884344 23.39404949 26.89453125 24.7265625 C27.50206741 25.33521149 28.10960358 25.94386047 28.73554993 26.57095337 C31.72290736 29.59076899 34.55064553 32.64819797 37.25878906 35.92138672 C40.74704673 39.9551159 44.71522077 43.02651591 48.95825195 46.23353577 C86.76604577 75.12721734 86.76604577 75.12721734 90.1953125 96.25732422 C92.92329646 116.89689972 90.68746951 138.46063792 88 159 C86.84169678 159.26119629 85.68339355 159.52239258 84.48999023 159.79150391 C82.95030056 160.14460607 81.41067158 160.49797298 79.87109375 160.8515625 C79.11002319 161.02244385 78.34895264 161.1933252 77.56481934 161.36938477 C68.1468224 163.5456954 60.24259649 167.63291 52.09375 172.765625 C50 174 50 174 47 175 C46.98582031 173.99582031 46.97164062 172.99164063 46.95703125 171.95703125 C46.51509222 156.52899667 42.20799693 144.92843725 30.94140625 134.00390625 C19.41228969 124.16713708 6.8842727 122.76157051 -7.70996094 123.75195312 C-12.32930244 124.25229971 -16.04795046 125.61794275 -20 128 C-20.71027344 128.39703125 -21.42054688 128.7940625 -22.15234375 129.203125 C-24.16906474 130.38987329 -26.08168186 131.66134756 -28 133 C-28.99 133.66 -29.98 134.32 -31 135 C-40.10102872 142.95404976 -44.33924419 154.93732637 -45.29981995 166.65846252 C-45.43940819 170.71725534 -45.4941024 174.7674427 -45.51171875 178.828125 C-45.52860746 180.31314536 -45.54676316 181.7981518 -45.56611633 183.28314209 C-45.61316847 187.14959353 -45.64326495 191.01598851 -45.66955566 194.88262939 C-45.70489151 199.54443734 -45.76177369 204.20602849 -45.81494904 208.86766052 C-45.89293639 215.91174414 -45.94393828 222.95555439 -46 230 C-59.53 230 -73.06 230 -87 230 C-89.58584279 207.99953069 -91.43829029 186.06501155 -92.4375 163.9375 C-92.47528439 163.12464334 -92.51306877 162.31178668 -92.55199814 161.474298 C-94.39431419 120.74477203 -93.19030462 86.26393873 -64.76296806 54.94884682 C-58.07038862 47.72221427 -50.88981397 41.06549882 -43.5 34.5625 C-42.98028673 34.10345197 -42.46057345 33.64440394 -41.92511129 33.17144537 C-28.52497196 21.36056731 -14.5945825 10.30396299 0 0 Z " fill="#01BFA5" transform="translate(243,131)"/>
<path d="M0 0 C0.97066406 0.4228125 1.94132812 0.845625 2.94140625 1.28125 C14.3164177 6.84740069 23.5732653 16.17965311 30 27 C30.47050781 27.78890625 30.94101562 28.5778125 31.42578125 29.390625 C38.75407457 42.79340335 40.11511102 59.25742468 37 74.125 C31.84277501 91.36350206 21.79374643 105.94039699 6 115 C-9.90059375 123.12407386 -28.19693301 126.36282893 -45.5625 120.875 C-56.58469436 117.10343343 -64.73921339 111.10729226 -73 103 C-73.639375 102.38511719 -74.27875 101.77023437 -74.9375 101.13671875 C-86.95011887 88.61463614 -90.53637352 72.0939169 -90.49243164 55.29394531 C-90.01342572 37.81097532 -82.06512744 24.29355499 -70 12 C-69.38511719 11.360625 -68.77023437 10.72125 -68.13671875 10.0625 C-50.33238834 -7.01745723 -21.93340638 -9.8061365 0 0 Z " fill="#02BFA6" transform="translate(364,308)"/>
<path d="M0 0 C5.80863334 3.2810565 10.20267324 7.9302811 14.87109375 12.640625 C15.7116481 13.48163757 16.55220245 14.32265015 17.41822815 15.18914795 C19.19143145 16.96536489 20.96221116 18.7440042 22.73071289 20.52490234 C25.41959973 23.23197864 28.11633475 25.93103408 30.81445312 28.62890625 C32.54213777 30.36150953 34.26936624 32.09456783 35.99609375 33.828125 C36.79421982 34.62736389 37.59234589 35.42660278 38.41465759 36.25006104 C39.17557205 37.01735535 39.93648651 37.78464966 40.72045898 38.57519531 C41.37964828 39.23819641 42.03883759 39.90119751 42.71800232 40.58428955 C44.63589142 42.61455662 46.46615227 44.68126145 48.29048157 46.79444885 C51.90366494 50.94600503 55.72186722 54.84288861 59.63183594 58.71362305 C60.72341759 59.80060486 60.72341759 59.80060486 61.83705139 60.9095459 C63.40297634 62.46836667 64.97002825 64.02605604 66.53810883 65.58270836 C69.02062893 68.04771695 71.49948443 70.51635733 73.97735596 72.98603821 C81.01790832 80.00223422 88.06415639 87.01268981 95.11474609 94.01879883 C99.43883473 98.31611191 103.75804528 102.61827808 108.07428741 106.92347145 C109.7166427 108.55962268 111.36089258 110.19387444 113.00707245 111.8261776 C115.30453602 114.10443076 117.59577847 116.38877265 119.88574219 118.67456055 C120.56526443 119.3453212 121.24478668 120.01608185 121.94490051 120.70716858 C129.67601646 128.45441502 129.67601646 128.45441502 130.4375 134.4375 C129.79904257 139.63636767 127.73593816 142.55338486 123.75 145.875 C119.94366398 147.43213746 116.95306308 148.18685384 113 147 C110.77079773 145.33277893 110.77079773 145.33277893 108.4050293 143.11938477 C107.52664398 142.30019562 106.64825867 141.48100647 105.74325562 140.63699341 C101.1822443 136.25265653 96.67505249 131.81874236 92.20703125 127.33984375 C91.20690665 126.34039547 90.20663389 125.34109544 89.20622253 124.3419342 C87.12812632 122.2652982 85.05181308 120.18690095 82.97680664 118.10717773 C80.33790128 115.46256112 77.69450934 112.82248174 75.04976368 110.18370724 C72.98970926 108.12729135 70.93207311 106.06846892 68.87512779 104.00894356 C67.90198487 103.03514123 66.92811999 102.06205973 65.95347023 101.08976555 C61.70603415 96.85035307 57.47578182 92.62799637 53.56347656 88.07446289 C48.8308521 82.56626696 43.69106882 77.44480508 38.58984375 72.28125 C38.05212404 71.73695847 37.51440434 71.19266693 36.96039009 70.63188171 C34.12341166 67.76257902 31.28254822 64.89717816 28.43920898 62.03417969 C26.09468322 59.67172803 23.75900653 57.30101364 21.43041992 54.92285156 C18.60211398 52.03444608 15.75944167 49.16095686 12.90579414 46.29759216 C11.82538914 45.20863404 10.75012217 44.11455262 9.68021965 43.01527405 C8.18718764 41.48341431 6.67639611 39.97148752 5.15991211 38.46289062 C4.30610458 37.59877563 3.45229706 36.73466064 2.57261658 35.84436035 C-0.55874056 33.5994277 -2.22590098 33.52211644 -6 34 C-8.08926722 35.15877693 -8.08926722 35.15877693 -9.80859375 36.94140625 C-10.48647949 37.58223145 -11.16436523 38.22305664 -11.86279297 38.88330078 C-12.56807129 39.58181152 -13.27334961 40.28032227 -14 41 C-15.09465576 42.05743408 -15.09465576 42.05743408 -16.21142578 43.13623047 C-18.51660675 45.38267437 -20.79229802 47.65574483 -23.0625 49.9375 C-23.82626953 50.69740234 -24.59003906 51.45730469 -25.37695312 52.24023438 C-26.13041016 52.99498047 -26.88386719 53.74972656 -27.66015625 54.52734375 C-28.32668213 55.19499756 -28.99320801 55.86265137 -29.67993164 56.55053711 C-31.56641547 58.54223365 -33.35810936 60.56501941 -35.14506531 62.64407349 C-38.9332994 66.98153603 -42.92677382 71.07464106 -46.99902344 75.14428711 C-47.76575882 75.9143811 -48.5324942 76.6844751 -49.32246399 77.47790527 C-51.83214844 79.99701241 -54.34551486 82.51240405 -56.859375 85.02734375 C-58.61345617 86.78464069 -60.367463 88.54201183 -62.12139893 90.29945374 C-65.78439937 93.96842159 -69.44944031 97.63533719 -73.11572266 101.30102539 C-76.88254084 105.0677618 -80.64596042 108.83783578 -84.40576172 112.61157227 C-88.95453735 117.17696627 -93.5081335 121.73749388 -98.06555939 126.2942524 C-99.80076811 128.03064335 -101.5343505 129.76866108 -103.26628876 131.50831413 C-105.67901228 133.93078719 -108.09793095 136.34689934 -110.51855469 138.76147461 C-111.23547989 139.48401932 -111.95240509 140.20656403 -112.6910553 140.95100403 C-113.34978134 141.60553558 -114.00850739 142.26006714 -114.68719482 142.93443298 C-115.25791088 143.50569381 -115.82862694 144.07695463 -116.41663742 144.66552639 C-119.49702458 147.26170709 -123.01564297 147.38826094 -126.9296875 147.359375 C-130.6233571 146.71820971 -132.42218955 144.64068388 -135 142 C-136.17006856 139.65986288 -136.33836406 137.98542048 -136.5 135.375 C-136.60828125 134.14910156 -136.60828125 134.14910156 -136.71875 132.8984375 C-134.45494089 123.76938118 -122.85689718 115.79933155 -116.3828125 109.421875 C-115.53460938 108.58140625 -114.68640625 107.7409375 -113.8125 106.875 C-113.05582031 106.12992187 -112.29914063 105.38484375 -111.51953125 104.6171875 C-109.53883204 102.559717 -107.67403067 100.47964038 -105.81555176 98.31555176 C-102.18089779 94.15063626 -98.3543944 90.22626913 -94.43164062 86.33398438 C-93.7103447 85.61414871 -92.98904877 84.89431305 -92.24589539 84.15266418 C-90.69310046 82.60364893 -89.1391523 81.055789 -87.58415222 79.50898743 C-85.11769509 77.05539621 -82.6544649 74.59860532 -80.1920166 72.14099121 C-74.0781779 66.04046008 -67.95889274 59.94540159 -61.83978271 53.85015869 C-56.65929716 48.68945918 -51.48090148 43.52667949 -46.30522156 38.36116028 C-43.88835615 35.95073725 -41.46847913 33.54336643 -39.04846191 31.1361084 C-37.55494518 29.64622705 -36.06157027 28.15620351 -34.56835938 26.66601562 C-33.90321823 26.0060408 -33.23807709 25.34606598 -32.55278015 24.66609192 C-28.69972218 20.81346471 -25.03799642 16.84640703 -21.48223114 12.71738434 C-9.33164858 -1.36086542 -9.33164858 -1.36086542 0 0 Z " fill="#02BFA5" transform="translate(247,82)"/>
<path d="M0 0 C7.27593109 4.87054114 12.53057682 11.76315156 15.8125 19.8125 C16.225 20.740625 16.6375 21.66875 17.0625 22.625 C22.44818594 45.51416523 3.01580559 70.44868291 -8.25 89.125 C-8.62298218 89.74667053 -8.99596436 90.36834106 -9.38024902 91.0088501 C-10.44491572 92.77771827 -11.51926427 94.54025476 -12.59765625 96.30078125 C-13.21777588 97.31696533 -13.83789551 98.33314941 -14.47680664 99.38012695 C-16.1875 101.8125 -16.1875 101.8125 -19.1875 103.8125 C-22 104 -22 104 -25.1875 102.8125 C-26.53442383 101.18920898 -26.53442383 101.18920898 -27.89453125 99.05859375 C-28.67558228 97.83765015 -28.67558228 97.83765015 -29.47241211 96.59204102 C-32.72387467 91.32258888 -35.91619956 86.02032836 -39.0625 80.6875 C-39.41510895 80.09056335 -39.7677179 79.49362671 -40.13101196 78.87860107 C-62.4770405 41.00545982 -62.4770405 41.00545982 -60.1875 24.8125 C-57.11812326 13.92661725 -51.478674 5.55958039 -42.0234375 -0.64453125 C-27.66259199 -8.45793893 -14.03896478 -7.89691769 0 0 Z " fill="#F9FDFD" transform="translate(359.1875,318.1875)"/>
<path d="M0 0 C7.314992 6.03219591 12.04585249 13.81673973 12.96923828 23.25463867 C14.4323697 47.68599982 14.4323697 47.68599982 6.7890625 57.625 C0.08401338 66.39889327 -1.21116989 77.86834945 -3.3125 88.375 C-20.1425 88.375 -36.9725 88.375 -54.3125 88.375 C-54.47293524 71.80560521 -54.47293524 71.80560521 -54.5078125 64.69140625 C-54.53163708 59.8547998 -54.55968733 55.01849895 -54.61425781 50.18212891 C-54.65802046 46.27876838 -54.68170052 42.375736 -54.69200897 38.4721489 C-54.69934625 36.98992123 -54.71367301 35.5077096 -54.73542023 34.02562332 C-54.91977037 20.93000141 -52.88171511 12.18354922 -43.6796875 2.57421875 C-31.10437961 -9.10878182 -14.17354674 -9.65007437 0 0 Z " fill="#02BFA5" transform="translate(264.3125,272.625)"/>
<path d="M0 0 C6.90840594 4.18691269 11.78149203 9.30326254 14.0625 17.25 C15.26296887 25.60853819 12.62541504 31.65046178 8.875 39 C8.34342285 40.07241943 7.8118457 41.14483887 7.26416016 42.24975586 C3.40485012 49.9126641 -0.73278893 57.40620616 -5.0625 64.8125 C-5.61832764 65.76415039 -6.17415527 66.71580078 -6.74682617 67.69628906 C-7.26607666 68.56092773 -7.78532715 69.42556641 -8.3203125 70.31640625 C-8.77809082 71.07896729 -9.23586914 71.84152832 -9.70751953 72.62719727 C-10.11341309 73.16272217 -10.51930664 73.69824707 -10.9375 74.25 C-11.5975 74.25 -12.2575 74.25 -12.9375 74.25 C-14.19921875 72.53198242 -14.19921875 72.53198242 -15.625 70.10546875 C-16.15440186 69.20957031 -16.68380371 68.31367188 -17.22924805 67.390625 C-18.07483276 65.92882812 -18.07483276 65.92882812 -18.9375 64.4375 C-19.80338745 62.95443359 -19.80338745 62.95443359 -20.68676758 61.44140625 C-24.45344669 54.94179392 -28.10690929 48.38742039 -31.625 41.75 C-32.03427734 40.98067139 -32.44355469 40.21134277 -32.86523438 39.41870117 C-37.11259287 31.2685846 -39.96454869 23.21722126 -37.28515625 14.0078125 C-33.89105405 6.52039391 -28.03055678 0.91155802 -20.390625 -2.08984375 C-13.22644417 -4.01778413 -6.58338887 -3.38574285 0 0 Z " fill="#06C0A7" transform="translate(349.9375,327.75)"/>
<path d="M0 0 C5.68132799 5.13360072 9.51294891 10.51803548 10.34765625 18.19921875 C10.74349369 27.58767093 9.28487365 34.23450364 2.9453125 41.28515625 C-3.23175361 47.17367429 -8.74629914 49.98990123 -17.25 50.5625 C-24.72093354 50.33390398 -31.27051447 47.13904594 -36.94921875 42.359375 C-43.16283666 35.66056275 -45.77745355 28.08119938 -45.453125 19 C-43.94190695 8.99469426 -37.62033884 2.81138461 -29.84375 -2.984375 C-20.76390066 -7.98598693 -8.03150743 -5.8436627 0 0 Z " fill="#F9FDFC" transform="translate(261,177)"/>
<path d="M0 0 C5.08686879 2.88191426 8.65965179 6.66501658 10.7421875 12.1640625 C11.82011116 18.16418623 10.97270314 23.20104229 7.94140625 28.4765625 C4.78066883 32.92424513 0.96039727 34.91169215 -4.2578125 36.1640625 C-10.21518684 36.82599298 -14.39450607 35.49802729 -19.2578125 32.1640625 C-22.8684267 28.74958043 -25.05161758 25.50657195 -25.49609375 20.45703125 C-25.6464115 14.16742009 -25.7384832 9.99847036 -21.2578125 5.1640625 C-15.18314541 -0.64097185 -8.19779978 -3.03517154 0 0 Z " fill="#F9FDFD" transform="translate(345.2578125,332.8359375)"/>
<path d="M0 0 C3.82547135 1.27515712 5.60804136 2.58741196 8.375 5.5 C10.65859941 10.4185218 11.02707468 14.67156745 10 20 C7.93817297 23.84965712 5.29454698 26.23654921 1.5625 28.4375 C-4.05611259 29.67085398 -8.43591034 29.57252224 -13.421875 26.39453125 C-17.39228742 22.88602324 -18.79374246 18.4953672 -19.5 13.375 C-18.73726134 8.22651406 -16.26946781 5.41881696 -12.875 1.625 C-8.60683378 -0.78744178 -4.79173599 -0.62300259 0 0 Z " fill="#04C0A6" transform="translate(248,185)"/>
<path d="M0 0 C2.26832463 2.22085644 2.94517622 3.62315689 3.40405273 6.77734375 C3.43591388 10.18569636 3.45783274 13.59149331 3.4375 17 C3.45748047 18.18851562 3.47746094 19.37703125 3.49804688 20.6015625 C3.49740234 21.74367188 3.49675781 22.88578125 3.49609375 24.0625 C3.49794678 25.10535156 3.4997998 26.14820313 3.50170898 27.22265625 C2.87264285 30.70501942 1.82016406 31.91270855 -1 34 C-4.625 33.9375 -4.625 33.9375 -8 33 C-11.31348312 28.02977531 -10.32756183 22.33796407 -10.3125 16.5 C-10.32861328 15.25089844 -10.34472656 14.00179688 -10.36132812 12.71484375 C-10.36197266 11.51988281 -10.36261719 10.32492187 -10.36328125 9.09375 C-10.36626221 7.99740234 -10.36924316 6.90105469 -10.37231445 5.77148438 C-10 3 -10 3 -8.69604492 1.14648438 C-5.80888222 -0.80516613 -3.35472256 -0.41934032 0 0 Z " fill="#F8FDFC" transform="translate(228,306)"/>
<path d="M0 0 C6.57692308 0.57692308 6.57692308 0.57692308 8 2 C8.45378151 7.21848739 8.45378151 7.21848739 6.875 9.9375 C5 11 5 11 1.9375 10.875 C-1 10 -1 10 -3 7 C-2.6758631 3.67759676 -2.39223697 2.39223697 0 0 Z " fill="#0EC2AA" transform="translate(335,345)"/>
</svg>
